<?xml version="1.0" encoding="utf-8"?>
<!-- Generator: Adobe Illustrator 24.1.1, SVG Export Plug-In . SVG Version: 6.00 Build 0)  -->
<svg version="1.1" id="Layer_1" xmlns="http://www.w3.org/2000/svg" xmlns:xlink="http://www.w3.org/1999/xlink" x="0px" y="0px"
	 viewBox="0 0 163.41 38.6" style="enable-background:new 0 0 163.41 38.6;" xml:space="preserve">
<style type="text/css">
	.st0{fill:#1BA1BE;}
	.st1{fill:#9B9DA0;}
</style>
<g>
	<g>
		<path class="st0" d="M33.57,6.88c-2.96-3.41-7.04-5.65-11.49-6.31l-1.87-0.28V27.8c1.12-0.09,2.22-0.35,3.26-0.78V4.2
			c2.94,0.82,5.6,2.49,7.63,4.83c2.48,2.85,3.84,6.5,3.84,10.28c0,3.78-1.36,7.43-3.84,10.28c-2.03,2.33-4.69,4.01-7.63,4.83V31.4
			c-1.04,0.35-2.14,0.57-3.26,0.65v6.26l1.87-0.28c4.45-0.66,8.52-2.9,11.49-6.31c2.99-3.44,4.64-7.85,4.64-12.42
			C38.21,14.73,36.57,10.33,33.57,6.88z"/>
		<path class="st0" d="M15.82,34.59c-3.23-0.73-6.18-2.48-8.38-5.01c-2.48-2.85-3.84-6.5-3.84-10.28c0-3.78,1.36-7.43,3.84-10.28
			c2.2-2.53,5.14-4.28,8.38-5.01V0.68C11.63,1.46,7.8,3.64,4.98,6.88c-2.99,3.44-4.64,7.85-4.64,12.42c0,4.57,1.65,8.98,4.64,12.42
			c2.82,3.24,6.65,5.43,10.84,6.2V34.59z"/>
		<g>
			<path class="st1" d="M7.83,21.7c4.34,7.94,14.4,9.7,20.72,3c0.61-0.66,1.2-1.44,1.69-2.19c0.16-0.27,0.32-0.54,0.49-0.82
				c-0.16,1.27-0.62,2.52-1.28,3.66c-0.66,1.14-1.55,2.18-2.59,3.04c-2.89,2.42-7,3.26-10.64,2.3C12.02,29.64,8.41,26.03,7.83,21.7
				L7.83,21.7z"/>
		</g>
	</g>
	<g>
		<g>
			<g>
				<path class="st1" d="M94.22,25.9v0.67c-0.44-0.45-0.98-0.68-1.62-0.68c-0.61,0-1.11,0.21-1.51,0.61c-0.4,0.41-0.6,0.92-0.6,1.53
					c0,0.61,0.2,1.13,0.6,1.54c0.4,0.41,0.9,0.61,1.51,0.61c0.65,0,1.19-0.23,1.62-0.68v0.67c-0.43,0.36-0.97,0.55-1.62,0.55
					c-0.75,0-1.38-0.25-1.91-0.76c-0.52-0.51-0.78-1.15-0.78-1.92c0-0.76,0.26-1.4,0.78-1.91c0.53-0.51,1.16-0.77,1.91-0.77
					C93.25,25.35,93.79,25.54,94.22,25.9z"/>
				<path class="st1" d="M97.75,30.61l2.33-5.35l2.34,5.35h-0.63l-0.56-1.27h-2.32l-0.56,1.27H97.75z M99.14,28.8h1.87l-0.93-2.19
					L99.14,28.8z"/>
				<path class="st1" d="M106.25,30.61v-5.32l2.5,3.55l2.5-3.55v5.32h-0.58v-3.62l-1.92,2.75l-1.92-2.75v3.62H106.25z"/>
				<path class="st1" d="M115.5,30.61v-5.16h1.58c0.39,0,0.72,0.13,0.98,0.38c0.27,0.24,0.4,0.56,0.4,0.94
					c0,0.5-0.24,0.87-0.66,1.04c0.67,0.14,1.04,0.62,1.04,1.28c0,0.44-0.15,0.81-0.45,1.1c-0.3,0.29-0.67,0.43-1.12,0.43H115.5z
					 M116.08,27.6h0.96c0.48,0,0.84-0.35,0.84-0.81s-0.36-0.81-0.84-0.81h-0.97V27.6z M116.08,30.07h1.15
					c0.59,0,1.03-0.42,1.03-0.99c0-0.27-0.1-0.5-0.3-0.69c-0.19-0.19-0.44-0.27-0.74-0.27h-1.15V30.07z"/>
				<path class="st1" d="M122.77,30.61v-5.16h2.92v0.53h-2.34v1.64h2.2v0.53h-2.2v1.92h2.39v0.53H122.77z"/>
				<path class="st1" d="M129.72,30.61v-5.16h1.76c0.43,0,0.79,0.15,1.1,0.44c0.3,0.29,0.45,0.66,0.45,1.1
					c0,0.68-0.39,1.24-0.98,1.47l1.24,2.15h-0.66l-1.16-2.04h-0.01h-1.16v2.04H129.72z M130.3,28.03h1.13c0.3,0,0.54-0.1,0.73-0.3
					c0.2-0.2,0.3-0.44,0.3-0.75c0-0.57-0.42-1.01-0.99-1.01h-1.16V28.03z"/>
				<path class="st1" d="M138.16,30.79l-1.69-5.35h0.61l1.15,3.64l1.56-3.82l1.5,3.81l1.18-3.63h0.61l-1.72,5.36l-1.57-3.98
					L138.16,30.79z"/>
				<path class="st1" d="M146.85,30.61v-5.16h2.92v0.53h-2.34v1.64h2.2v0.53h-2.2v1.92h2.39v0.53H146.85z"/>
				<path class="st1" d="M153.8,30.61v-5.16h0.58v4.63h2.12v0.53H153.8z"/>
				<path class="st1" d="M160.36,30.61v-5.16h0.58v4.63h2.12v0.53H160.36z"/>
			</g>
			<g>
				<path class="st0" d="M52.52,11.49c1.22,0,2.28,0.46,3.2,1.38v-2.39c-0.91-0.71-1.97-1.07-3.2-1.07c-1.56,0-2.86,0.5-3.94,1.52
					c-1.08,1.02-1.61,2.28-1.61,3.81c0,1.53,0.53,2.79,1.61,3.81c1.08,1.01,2.39,1.51,3.94,1.51c1.23,0,2.3-0.35,3.2-1.07v-2.39
					C54.8,17.54,53.74,18,52.52,18c-0.93,0-1.7-0.31-2.34-0.92c-0.62-0.62-0.93-1.39-0.93-2.33c0-0.93,0.31-1.7,0.95-2.33
					C50.83,11.8,51.6,11.49,52.52,11.49z"/>
				<path class="st0" d="M63.3,8.99l-5.38,10.93h2.42l0.8-1.65h4.32l0.8,1.65h2.43L63.3,8.99z M61.98,16.32l1.3-2.71l1.32,2.71
					H61.98z"/>
				<path class="st0" d="M77.33,15.93c1.11-0.47,1.84-1.62,1.84-2.94c0-0.96-0.34-1.76-1.04-2.41c-0.68-0.67-1.51-1-2.47-1h-4.33
					v10.34h2.27v-3.44h1.53l2.15,3.44h2.58L77.33,15.93z M75.41,14.46H73.6v-2.8h2c0.73,0,1.29,0.58,1.29,1.36
					C76.89,13.89,76.3,14.46,75.41,14.46z"/>
				<path class="st0" d="M84.82,17.84v-2.21h4.46V13.6h-4.46v-1.94h4.77V9.58h-7.06v10.34h7.16v-2.08H84.82z"/>
				<path class="st0" d="M108.3,11.02c-0.95-0.97-2.3-1.44-4.05-1.44h-3.91v10.34h3.93c1.76,0,3.11-0.46,4.05-1.39
					c0.95-0.94,1.42-2.2,1.42-3.75C109.74,13.21,109.26,11.96,108.3,11.02z M107.12,14.63c-0.3,1.39-1.21,3.17-1.61,3.17
					c-0.27,0-0.32-0.27-0.38-0.65c-0.04-0.24-0.1-0.53-0.21-0.87c-0.13-0.37-0.62-0.41-0.81-0.08c-0.15,0.28-0.23,0.59-0.31,0.87
					c-0.11,0.41-0.19,0.73-0.47,0.73c-0.14,0-0.38-0.19-0.8-1.07c-0.32-0.69-0.58-1.49-0.71-2.2c-0.27-1.49,0.04-2.45,0.9-2.76
					c0.44-0.16,0.88-0.11,1.38,0.29c0.14,0.11,0.27,0.33,0.38,0.53c0.1-0.2,0.47-0.54,0.76-0.71c0.35-0.2,0.73-0.22,1.09-0.05
					C107.16,12.21,107.43,13.18,107.12,14.63z"/>
				<path class="st0" d="M115.04,17.84v-2.21h4.46V13.6h-4.46v-1.94h4.77V9.58h-7.06v10.34h7.16v-2.08H115.04z"/>
				<path class="st0" d="M130.03,9.58v5.87l-6.94-6.27v10.73h2.25v-5.86l6.94,6.25V9.58H130.03z"/>
				<path class="st0" d="M134.96,9.58v2.08h2.8v8.26h2.28v-8.26h2.76V9.58H134.96z"/>
				<path class="st0" d="M148.72,8.99l-5.38,10.93h2.42l0.8-1.65h4.32l0.8,1.65h2.43L148.72,8.99z M147.4,16.32l1.3-2.71l1.32,2.71
					H147.4z"/>
				<path class="st0" d="M159.03,17.84V9.58h-2.28v10.34h6.31v-2.08H159.03z"/>
			</g>
		</g>
	</g>
</g>
</svg>
